<svg width="530" height="221" viewBox="0 0 530 221" fill="none" xmlns="http://www.w3.org/2000/svg">
<path fill-rule="evenodd" clip-rule="evenodd" d="M275.5 1.405C259.9 4.392 246.108 11.705 235.36 22.688C228.038 30.171 219.401 46.52 215.549 60.189C212.844 69.785 210 87.258 210 94.271C210 99.722 208.17 100.867 203.663 98.235C200.575 96.432 198.058 92.162 190.553 76C183.276 60.327 172.04 48.84 156.476 41.161L148 36.978L147.985 21.239C147.976 12.583 147.608 4.93 147.165 4.233C146.542 3.251 140.316 3.027 119.465 3.233L92.568 3.5L64.28 46C20.372 111.969 2.324 139.307 1.113 141.684C0.494999 142.897 0 148.775 0 154.899C0 165.049 0.166001 166.019 2.081 167.043C3.529 167.818 15.688 168.08 42.097 167.904L80.032 167.651L86.266 173.889C89.695 177.32 95.2 181.758 98.5 183.752C101.8 185.746 104.831 187.855 105.235 188.439C105.639 189.023 105.976 195.447 105.985 202.715C105.999 214.755 106.172 216.022 107.937 216.967C113.701 220.051 143.568 220.289 146.582 217.275C147.659 216.198 148 212.757 148 202.955V190.052L156.09 186.015C174.575 176.791 184.313 165.783 194.475 142.625C198.953 132.421 203.681 126.675 207.191 127.173C209.198 127.457 209.608 128.286 210.325 133.5C212.143 146.733 215.156 160.326 218.03 168.27C230.902 203.844 260.254 222.668 299.798 220.711C346.722 218.388 373.217 189.84 380.505 133.75L381.123 129H388.906C395.42 129 396.985 129.326 398.5 131C401.062 133.831 410.674 133.831 414.273 131C415.875 129.74 418.33 129 420.908 129H425V150.918C425 162.973 425.273 173.548 425.607 174.418C426.348 176.348 431.315 176.531 432.847 174.684C433.483 173.918 434.057 167.751 434.22 159.934L434.5 146.5L438.75 146.193L443 145.885V151.32C443 157.495 444.381 159.316 448.69 158.822C451.356 158.516 451.526 158.193 452 152.5L452.5 146.5L456.75 146.193L461 145.885V151.243C461 157.028 462.164 159 465.578 159C468.696 159 469.909 157.041 470.27 151.425L470.586 146.5L474.793 146.193L479 145.885L479.011 156.693C479.026 171.246 479.707 174.909 482.645 176.248C484.995 177.319 485 177.364 485.015 195.911C485.024 206.135 485.41 215.098 485.873 215.829C487.889 219.008 524.97 219.93 528.63 216.892C529.774 215.943 530 198.606 530 111.943C530 46.911 529.636 7.172 529.025 5.565L528.05 3H511.459C501.073 3 494.052 3.423 492.684 4.131C491.483 4.753 487.35 8.279 483.5 11.968C472.47 22.534 447.129 36.072 433.786 38.526C427.883 39.612 427.458 40.74 428.974 51.31C429.699 56.364 430.79 64.052 431.4 68.393C432.806 78.415 433.552 78.954 442.643 76.515C451.333 74.183 464.171 67.531 474.669 59.921C479.162 56.665 483.324 54 483.919 54C484.66 54 485 60.726 485 75.393C485 93.978 484.792 96.866 483.418 97.393C482.548 97.727 467.207 98 449.326 98C418.33 98 416.697 97.907 414.273 96C410.646 93.147 401.062 93.169 398.466 96.037C396.853 97.82 395.615 98.039 388.561 97.787L380.5 97.5L379.876 88C379.139 76.788 375.907 61.565 371.967 50.758C362.863 25.779 345.285 9.425 320.5 2.874C310.302 0.178 286.04 -0.614 275.5 1.405ZM310.602 40.298C319.705 44.911 326.814 55.331 330.439 69.372C332.491 77.324 335.192 95.881 334.467 97.053C333.797 98.137 283.144 98.357 266.656 97.348L256 96.696V93.459C256 85.413 261.405 63.154 265.217 55.5C267.617 50.681 274.37 43.438 278.5 41.252C288.051 36.197 301.707 35.791 310.602 40.298ZM154.654 73.379C161.833 79.833 164.508 85.729 164.465 95C164.436 101.212 163.953 103.418 161.648 107.849C158.96 113.016 158.92 113.313 160.47 116.578C163.156 122.239 165 128.106 165 130.992V133.733L157.75 133.29C153.762 133.047 149.911 132.661 149.192 132.433C148.142 132.1 147.942 125.784 148.177 100.509C148.338 83.179 148.765 69 149.127 69C149.488 69 151.975 70.971 154.654 73.379ZM104.511 130.75C104.033 132.709 103.317 133 98.981 133H94V129.141C94 126.852 95.206 122.892 96.962 119.409L99.924 113.536L96.962 107.609C94.542 102.765 94 100.424 94 94.808C94 86.582 95.773 81.859 100.799 76.701L104.5 72.902L104.781 100.701C104.935 115.99 104.814 129.512 104.511 130.75ZM65.318 119.25L65.912 133H55.956C50.48 133 46 132.775 46 132.5C46 132.224 49.037 127.699 52.75 122.444C56.463 117.189 60.561 111.088 61.858 108.886C63.154 106.684 64.33 105.021 64.469 105.191C64.609 105.361 64.991 111.688 65.318 119.25ZM333.722 130.719C334.734 133.355 330.267 153.498 326.851 161.703C323.273 170.298 317.167 177.123 310.22 180.292C303.156 183.514 287.564 183.433 280.273 180.137C274.5 177.527 268.247 171.364 265.088 165.172C259.828 154.862 255.244 131.726 258.102 129.916C258.871 129.429 276.052 129.024 296.281 129.015C330.142 129.001 333.115 129.136 333.722 130.719Z" fill="#F4EDF5"/>
<path fill-rule="evenodd" clip-rule="evenodd" d="M147 52.463V66.837L150.403 68.94C163.951 77.313 169.221 94.441 162.357 107.788L159.419 113.5L162.357 119.228C167.829 129.899 165.971 142.492 157.548 151.815C144.072 166.732 118.366 167.796 102.749 154.085C93.1439 145.651 90.2279 130.776 95.9549 119.423L98.9109 113.564L95.8429 107.334C93.0829 101.727 92.8169 100.372 93.1799 93.802C93.6699 84.943 95.8139 80.135 102.08 73.843L106.718 69.187L107.215 54.542C107.638 42.077 107.498 39.979 106.274 40.448C105.483 40.752 104.671 41 104.469 41C104.267 41 102.18 44.713 99.8319 49.25C97.4839 53.787 88.8559 67.523 80.6589 79.773L65.7539 102.047L66.2599 116.773C66.8489 133.893 68.9009 143.039 74.9369 155.446C95.3389 197.384 146.071 203.864 177.977 168.608C183.747 162.233 187.964 155.341 192.525 144.832C199.601 128.53 203.101 125.501 212.976 127.133C215.464 127.544 244.163 127.908 276.75 127.94L336 128V113.5V99L276.75 99.06C244.163 99.092 215.25 99.494 212.5 99.953C203.123 101.516 199.206 98.042 192.547 82.253C187.606 70.537 181.944 62.151 173.663 54.285C166.2 47.195 158.458 42.131 151.132 39.547L147 38.089V52.463ZM402.248 94.764C401.009 94.971 399.531 96.008 398.963 97.07C398.06 98.756 396.798 99 388.965 99H380V113.5V128H388.606C396.595 128 397.353 128.179 399.179 130.5C400.805 132.568 402.005 133 406.12 133C410.143 133 411.539 132.521 413.412 130.5C415.302 128.461 416.673 128 420.846 128H425.963L426.232 151.25L426.5 174.5H429.5H432.5L432.777 160.25L433.055 146H438.527H444V151.378C444 157.312 445.578 159.586 448.952 158.515C450.603 157.991 451 157.021 451 153.514C451 146.697 451.562 146 457.057 146H461.9L462.2 151.646C462.416 155.709 462.991 157.601 464.25 158.391C467.461 160.407 469.464 157.972 469.8 151.646L470.1 146H475.022H479.945L480.223 160.25L480.5 174.5H484H487.5L487.768 151.25L488.037 128H492.942C496.759 128 498.528 127.426 500.923 125.411C503.939 122.874 504 122.643 504 113.834C504 105.233 503.874 104.72 501.077 101.923L498.154 99H456.699C415.924 99 415.221 98.966 413.872 96.936C412.499 94.87 407.366 93.911 402.248 94.764Z" fill="#FF9000"/>
</svg>
